<?xml version="1.0" encoding="utf-8"?>
<!-- Generator: Adobe Illustrator 17.0.0, SVG Export Plug-In . SVG Version: 6.00 Build 0)  -->
<!DOCTYPE svg PUBLIC "-//W3C//DTD SVG 1.1//EN" "http://www.w3.org/Graphics/SVG/1.1/DTD/svg11.dtd">
<svg version="1.1" id="Ebene_1" xmlns="http://www.w3.org/2000/svg" xmlns:xlink="http://www.w3.org/1999/xlink" x="0px" y="0px"
	 width="6350px" height="643.441px" viewBox="0 0 6350 643.441" enable-background="new 0 0 6350 643.441" xml:space="preserve">
<path fill="#FFFFFF" d="M2518.437,10.134c41.694-6.025,83.872-5.586,125.918-5.278c68.787-0.66,141.972,4.97,201.434,43.058
	c69.754,47.984,117.606,129.173,118.881,214.629c-0.176,34.965-0.176,69.93-0.044,104.895
	c3.871,74.856-27.093,150.24-81.102,202.006c-34.613,37.912-85.148,56.076-134.627,64.169
	c-62.453,15.701-127.282,7.521-190.923,8.928c-61.442-8.796-127.458-19.088-176.013-61.134
	c-39.143-35.933-69.578-82.465-82.421-134.363c-12.491-50.051-12.623-102.081-11.963-153.319
	c1.671-54.625,9.5-111.053,38.572-158.421c21.903-34.657,48.863-67.423,84.224-89.018
	C2443.009,26.099,2480.701,15.632,2518.437,10.134L2518.437,10.134z M2660.408,145.641c3.519,14.954,16.097,27.092,15.745,43.058
	c4.31,38.308-42.442,67.775-76.044,50.93c-30.831-11.743-38.835-52.822-20.055-78.375c13.15-15.13-2.859-39.319-21.639-36.065
	c-34.085,3.387-68.347,9.104-100.893,20.275c6.597,36.68,14.954,73.713,13.106,111.185c-2.595,17.109-25.245,25.509-38.967,15.745
	c-16.493-10.336-38.792-13.414-55.549-2.023c-17.504,12.359-31.271,35.361-23.53,57.132c6.509,14.91,15.393,32.282,33.382,35.097
	c20.056,6.597,37.912-5.893,54.977-14.47c13.854-3.87,21.683,10.512,29.82,18.648c-1.495,39.451-9.192,78.199-17.549,116.682
	c34.13,10.6,69.71,15.393,105.203,18.604c14.03,2.243,27.136-9.28,26.345-23.706c-3.562-17.109-17.504-31.403-15.261-49.743
	c-0.616-31.71,32.019-53.921,61.53-52.646c23.53,3.431,44.861,22.474,49.479,46.048c3.782,20.715-8.532,38.616-16.669,56.472
	c4.442,9.984,9.192,24.63,22.958,23.398c38.615-0.44,76.747-8.312,113.824-18.78c-8.796-36.197-16.273-72.833-19.968-109.909
	c-1.671-19.132,21.991-40.771,40.155-27.752c17.505,11.963,40.683,17.988,60.254,6.773c17.109-10.951,29.951-31.842,26.257-52.69
	c-5.366-34.437-48.643-57.571-78.99-37.56c-14.954,12.007-37.824,10.775-48.203-6.465c-4.97-40.067,3.65-80.266,11.699-119.453
	c-36.68-6.641-73.669-15.745-111.185-13.898C2668.809,122.638,2660.98,134.645,2660.408,145.641L2660.408,145.641z"/>
<g>
	<path fill="#FFFFFF" d="M3101.576,577.443V39.166h348.297v94.99h-239.058v125.862h191.564v93.407h-191.564v129.028h239.058v94.99
		H3101.576z"/>
	<path fill="#FFFFFF" d="M3649.342,396.962v180.481h-109.239V39.166h208.979c126.653,0,189.98,59.109,189.98,177.315
		c0,70.191-26.395,121.904-79.159,155.15l76.784,205.812h-119.529l-62.535-180.481H3649.342z M3808.45,279.808
		c12.665-15.832,18.998-36.673,18.998-62.535c0-25.85-6.729-46.432-20.186-61.744c-13.457-15.3-32.851-22.956-58.182-22.956h-99.739
		v170.982h101.322C3776.515,303.555,3795.784,295.639,3808.45,279.808z"/>
	<path fill="#FFFFFF" d="M4030.881,577.443V39.166h186.022l94.99,392.626l94.99-392.626h186.022v538.277h-109.239V161.07h-11.873
		l-105.281,392.626h-109.238L4151.993,161.07h-11.873v416.374H4030.881z"/>
	<path fill="#FFFFFF" d="M4664.93,577.443l121.112-538.277h207.396l121.112,538.277h-109.239l-21.372-97.365h-188.397
		l-21.373,97.365H4664.93z M4870.741,129.406l-54.619,255.682h147.235l-54.62-255.682H4870.741z"/>
	<path fill="#FFFFFF" d="M5186.576,577.443V39.166h184.439l129.819,443.287h7.916V39.166h109.239v538.277H5438.3L5303.73,134.156
		h-7.915v443.288H5186.576z"/>
	<path fill="#FFFFFF" d="M5735.139,577.443V39.166h184.439l129.819,443.287h7.916V39.166h109.239v538.277h-179.69l-134.569-443.288
		h-7.915v443.288H5735.139z"/>
</g>
<g>
	<path fill="#FFFFFF" d="M209.576,577.443V39.166h186.022l94.99,392.626l94.99-392.626h186.022v538.278H662.362V161.069h-11.873
		L545.208,553.695H435.97L330.689,161.069h-11.874v416.374H209.576z"/>
	<path fill="#FFFFFF" d="M993.234,397.753c0,62.808,31.923,94.199,95.782,94.199c63.846,0,95.781-31.391,95.781-94.199V39.166
		h109.238v356.213c0,65.974-17.019,114.384-51.057,145.256c-34.038,30.872-85.367,46.308-153.963,46.308
		c-68.608,0-119.926-15.437-153.964-46.308c-34.038-30.872-51.057-79.282-51.057-145.256V39.166h109.238V397.753z"/>
	<path fill="#FFFFFF" d="M1571.876,124.656c-57.526,0-86.283,18.998-86.283,56.994c0,16.896,7.125,29.821,21.373,38.788
		c14.249,8.98,47.619,21.905,100.136,38.788c52.504,16.895,89.312,36.017,110.426,57.39c21.101,21.373,31.663,54.224,31.663,98.552
		c0,56.475-17.154,99.22-51.452,128.237c-34.311,29.029-79.159,43.538-134.57,43.538c-41.162,0-91.563-6.333-151.192-18.999
		l-28.497-5.541l11.082-84.7c70.711,9.499,124.799,14.249,162.275,14.249c55.931,0,83.908-23.216,83.908-69.659
		c0-16.883-6.469-30.081-19.395-39.58c-12.938-9.499-38.664-19.79-77.18-30.872c-61.224-17.415-104.365-38.12-129.424-62.14
		c-25.07-24.007-37.6-57.39-37.6-100.135c0-53.828,16.351-93.926,49.078-120.321c32.715-26.382,77.575-39.579,134.569-39.579
		c39.047,0,88.657,5.281,148.817,15.832l28.497,5.541l-8.707,86.283C1654.992,128.887,1602.476,124.656,1571.876,124.656z"/>
	<path fill="#FFFFFF" d="M1788.764,135.739V39.166h395.792v96.573H2042.07v441.705h-109.238V135.739H1788.764z"/>
</g>
</svg>
