<?xml version="1.0" encoding="utf-8"?>
<!-- Generator: Adobe Illustrator 17.0.0, SVG Export Plug-In . SVG Version: 6.00 Build 0)  -->
<!DOCTYPE svg PUBLIC "-//W3C//DTD SVG 1.1//EN" "http://www.w3.org/Graphics/SVG/1.1/DTD/svg11.dtd">
<svg version="1.1" id="Ebene_1" xmlns="http://www.w3.org/2000/svg" xmlns:xlink="http://www.w3.org/1999/xlink" x="0px" y="0px"
	 width="300px" height="300px" viewBox="0 0 300 300" enable-background="new 0 0 300 300" xml:space="preserve">
<g id="Location_Pin_2">
	<g>
		<path fill="#0099CC" d="M161.537,264.769c-3.973-0.208-7.84-0.544-11.488-0.998c-3.157-0.465-6.017,1.834-6.407,4.985
			c-0.393,3.152,1.842,6.017,4.988,6.41c3.918,0.488,8.056,0.852,12.301,1.077c0.104,0.006,0.205,0.006,0.308,0.006
			c3.031,0,5.566-2.378,5.729-5.44C167.136,267.634,164.706,264.931,161.537,264.769z M98.392,23.727
			c-41.229,0-74.652,33.658-74.652,75.173c0,61.081,74.652,120.07,74.652,120.07s74.652-58.989,74.652-120.07
			C173.044,57.385,139.621,23.727,98.392,23.727z M98.381,203.873c-6.833-6.096-17.673-16.414-28.493-29.391
			c-15.814-18.96-34.662-47.465-34.662-75.583c0-35.11,28.337-63.688,63.167-63.688c34.83,0,63.167,28.578,63.167,63.688
			C161.559,143.067,116.242,187.913,98.381,203.873z M208.553,149.959c0.92,0.539,1.924,0.797,2.916,0.797
			c1.963,0,3.881-1.004,4.952-2.815c1.711-2.905,3.869-5.906,6.404-8.934c2.041-2.428,1.722-6.051-0.706-8.092
			c-2.434-2.041-6.057-1.716-8.086,0.712c-2.944,3.505-5.468,7.032-7.503,10.47C204.919,144.828,205.822,148.344,208.553,149.959z
			 M128.027,258.819c-3.648-1.307-6.967-2.838-9.864-4.537c-2.737-1.621-6.256-0.684-7.86,2.041
			c-1.607,2.737-0.69,6.258,2.044,7.862c3.51,2.058,7.481,3.886,11.799,5.445c0.642,0.224,1.295,0.331,1.94,0.331
			c2.355,0,4.562-1.452,5.406-3.802C132.564,263.182,131.013,259.884,128.027,258.819z M103.956,236.264
			c-0.048-3.129-2.602-5.658-5.742-5.658c-3.172,0-5.742,2.574-5.742,5.748c0,0.544,0.075,3.466,1.589,7.559
			c0.858,2.322,3.053,3.752,5.386,3.752c0.661,0,1.337-0.118,1.994-0.365c2.975-1.099,4.492-4.397,3.393-7.38
			C104.056,237.834,103.961,236.399,103.956,236.264z M98.392,58.271c-22.201,0-40.197,17.99-40.197,40.186
			c0,22.196,17.996,40.191,40.197,40.191c22.201,0,40.197-17.996,40.197-40.191C138.59,76.261,120.594,58.271,98.392,58.271z
			 M98.392,127.09c-15.856,0-28.712-12.864-28.712-28.729s12.856-28.729,28.712-28.729c15.859,0,28.712,12.865,28.712,28.729
			S114.251,127.09,98.392,127.09z M196.176,263.529c-3.656,0.522-7.503,0.909-11.44,1.161c-3.165,0.208-5.566,2.938-5.361,6.107
			c0.196,3.039,2.723,5.372,5.726,5.372c0.123,0,0.25-0.011,0.376-0.011c4.229-0.28,8.372-0.695,12.315-1.256
			c3.14-0.449,5.322-3.353,4.879-6.494C202.222,265.268,199.323,263.058,196.176,263.529z M242.559,221.134
			c-3.107,0.645-5.103,3.684-4.458,6.791c0.387,1.856,0.583,3.679,0.583,5.412c0,1.413-0.135,2.826-0.393,4.178
			c-0.606,3.118,1.43,6.129,4.548,6.724c0.365,0.078,0.734,0.107,1.093,0.107c2.698,0,5.103-1.901,5.63-4.649
			c0.404-2.075,0.606-4.206,0.606-6.359c0-2.512-0.275-5.12-0.819-7.744C248.7,222.48,245.638,220.506,242.559,221.134z
			 M275.589,93.034c-1.458-2.826-4.924-3.931-7.733-2.478c0,0-1.963,1.015-5.226,2.871c-2.753,1.57-3.718,5.075-2.148,7.834
			c1.06,1.856,3,2.894,4.997,2.894c0.964,0,1.94-0.241,2.837-0.752c2.95-1.677,4.744-2.608,4.801-2.636
			C275.932,99.315,277.042,95.854,275.589,93.034z M241.74,106.807c-3.202,2.299-6.505,4.8-9.78,7.464
			c-2.457,2.008-2.826,5.625-0.825,8.081c1.139,1.397,2.787,2.114,4.458,2.114c1.273,0,2.557-0.421,3.622-1.29
			c3.084-2.512,6.197-4.874,9.219-7.038c2.574-1.845,3.169-5.434,1.318-8.008C247.909,105.551,244.326,104.962,241.74,106.807z
			 M214.29,176.193c-1.643-2.938-2.647-5.989-2.977-9.079c-0.336-3.152-3.101-5.428-6.32-5.092c-3.157,0.336-5.44,3.163-5.098,6.32
			c0.499,4.638,1.969,9.169,4.38,13.464c1.049,1.879,3,2.939,5.013,2.939c0.948,0,1.912-0.236,2.798-0.735
			C214.857,182.462,215.843,178.963,214.29,176.193z M227.289,252.908c-2.703,1.873-5.877,3.567-9.427,5.025
			c-2.933,1.211-4.329,4.565-3.124,7.503c0.914,2.215,3.057,3.555,5.311,3.555c0.729,0,1.475-0.14,2.187-0.432
			c4.313-1.778,8.216-3.875,11.592-6.208c2.608-1.817,3.258-5.395,1.452-7.997C233.474,251.753,229.885,251.102,227.289,252.908z
			 M237.736,202.056c-2.428-3.185-5.232-6.382-8.333-9.528c-2.221-2.26-5.855-2.282-8.12-0.062c-2.26,2.221-2.283,5.866-0.056,8.126
			c2.759,2.798,5.249,5.647,7.391,8.44c1.133,1.48,2.838,2.254,4.565,2.254c1.217,0,2.445-0.387,3.482-1.183
			C239.189,208.169,239.666,204.569,237.736,202.056z"/>
	</g>
</g>
</svg>
