<?xml version="1.0" encoding="utf-8"?>
<!-- Generator: Adobe Illustrator 17.0.0, SVG Export Plug-In . SVG Version: 6.00 Build 0)  -->
<!DOCTYPE svg PUBLIC "-//W3C//DTD SVG 1.1//EN" "http://www.w3.org/Graphics/SVG/1.1/DTD/svg11.dtd">
<svg version="1.1" id="Ebene_1" xmlns="http://www.w3.org/2000/svg" xmlns:xlink="http://www.w3.org/1999/xlink" x="0px" y="0px"
	 width="300px" height="300px" viewBox="0 0 300 300" enable-background="new 0 0 300 300" xml:space="preserve">
<g id="Game_Controler">
	<g>
		<path fill="#0099CC" d="M168.618,161.78c-3.427,0-6.206,2.776-6.206,6.206c0,3.43,2.779,6.206,6.206,6.206
			c3.427,0,6.206-2.776,6.206-6.206C174.824,164.555,172.045,161.78,168.618,161.78z M131.382,161.78
			c-3.427,0-6.206,2.776-6.206,6.206c0,3.43,2.779,6.206,6.206,6.206c3.427,0,6.206-2.776,6.206-6.206
			C137.588,164.555,134.809,161.78,131.382,161.78z M100.352,192.809H87.941v-12.412c0-3.424-2.779-6.206-6.206-6.206
			c-3.427,0-6.206,2.781-6.206,6.206v12.412H63.117c-3.427,0-6.206,2.776-6.206,6.206c0,3.43,2.779,6.206,6.206,6.206h12.412v12.412
			c0,3.43,2.779,6.206,6.206,6.206c3.427,0,6.206-2.776,6.206-6.206v-12.412h12.412c3.427,0,6.206-2.776,6.206-6.206
			C106.558,195.585,103.779,192.809,100.352,192.809z M230.677,174.191c-6.855,0-12.412,5.557-12.412,12.412
			c0,6.861,5.557,12.412,12.412,12.412c6.854,0,12.412-5.551,12.412-12.412C243.089,179.749,237.532,174.191,230.677,174.191z
			 M218.265,130.75h-61.702c-6.091-11.212-1.167-16.933,7.882-25.812c7.391-7.242,16.585-16.254,16.585-30.036
			c0-34.472-39.008-54.375-40.666-55.205c-3.061-1.527-6.785-0.285-8.322,2.77c-1.533,3.066-0.297,6.794,2.764,8.333
			c0.336,0.17,33.811,17.333,33.811,44.102c0,8.569-6.243,14.691-12.861,21.175c-8.485,8.321-18.715,18.642-12.372,34.672h-61.65
			c-37.702,0-68.265,30.569-68.265,68.265c0,37.702,30.563,68.265,68.265,68.265c21.199,0,40.139-9.66,52.66-24.824h31.211
			c12.521,15.164,31.461,24.824,52.66,24.824c37.702,0,68.265-30.563,68.265-68.265C286.531,161.319,255.968,130.75,218.265,130.75z
			 M218.265,254.869c-19.363,0-36.415-9.861-46.435-24.824h-43.66c-10.021,14.963-27.072,24.824-46.435,24.824
			c-30.848,0-55.853-25.006-55.853-55.853s25.005-55.853,55.853-55.853h136.531c30.848,0,55.853,25.006,55.853,55.853
			S249.113,254.869,218.265,254.869z M205.853,199.015c-6.855,0-12.412,5.557-12.412,12.412c0,6.861,5.557,12.412,12.412,12.412
			c6.854,0,12.412-5.551,12.412-12.412C218.265,204.573,212.708,199.015,205.853,199.015z"/>
	</g>
</g>
</svg>
