<?xml version="1.0" encoding="utf-8"?>
<!-- Generator: Adobe Illustrator 17.0.0, SVG Export Plug-In . SVG Version: 6.00 Build 0)  -->
<!DOCTYPE svg PUBLIC "-//W3C//DTD SVG 1.1//EN" "http://www.w3.org/Graphics/SVG/1.1/DTD/svg11.dtd">
<svg version="1.1" id="Ebene_1" xmlns="http://www.w3.org/2000/svg" xmlns:xlink="http://www.w3.org/1999/xlink" x="0px" y="0px"
	 width="300px" height="300px" viewBox="0 0 300 300" enable-background="new 0 0 300 300" xml:space="preserve">
<g id="Mouse">
	<g>
		<path fill="#FFFFFF" d="M118.207,251.723c7.023,0,12.717-5.694,12.717-12.717c0-7.023-5.694-12.717-12.717-12.717
			c-7.023,0-12.717,5.694-12.717,12.717C105.49,246.029,111.184,251.723,118.207,251.723z M248.224,10.766
			c-3.155-1.565-6.607-0.094-8.532,2.844c-14.282,21.79-33.271,42.058-67.772,22.597c-19.648-11.084-32.799-7.482-41.89-1.869
			c-9.34,5.775-15.835,15.934-17.636,26.925c-35.903,2.956-64.132,32.979-64.132,69.647v89.021c0,38.63,31.315,69.945,69.945,69.945
			c38.63,0,69.945-31.315,69.945-69.945v-89.021c0-36.221-27.534-66.008-62.816-69.579c1.478-5.992,5.148-12.326,11.376-16.176
			c9.078-5.613,15.12-4.775,29.52,2.421c24.168,12.084,39.63,8.967,51.838,4.21c14.94-5.805,25.571-17.648,32.997-32.488
			C252.632,16.155,251.366,12.336,248.224,10.766z M175.435,219.93c0,31.607-25.621,57.228-57.228,57.228
			c-31.607,0-57.228-25.621-57.228-57.228v-69.945h114.455V219.93z M175.435,130.909v6.365H60.979v-6.365
			c0-29.452,22.255-53.688,50.869-56.855v63.214h12.717V74.054C153.18,77.22,175.435,101.457,175.435,130.909z"/>
	</g>
</g>
</svg>
